<mxfile host="app.diagrams.net" agent="Mozilla/5.0 (X11; Linux x86_64) AppleWebKit/537.36 (KHTML, like Gecko) Chrome/135.0.0.0 Safari/537.36" version="26.2.14">
  <diagram id="C5RBs43oDa-KdzZeNtuy" name="Page-1">
    <mxGraphModel dx="1810" dy="1605" grid="1" gridSize="10" guides="1" tooltips="1" connect="1" arrows="1" fold="1" page="1" pageScale="1" pageWidth="827" pageHeight="1169" math="0" shadow="0">
      <root>
        <mxCell id="WIyWlLk6GJQsqaUBKTNV-0" />
        <mxCell id="WIyWlLk6GJQsqaUBKTNV-1" parent="WIyWlLk6GJQsqaUBKTNV-0" />
        <mxCell id="-mYZi2nTDg7IoqrMFamv-60" value="user" style="swimlane;whiteSpace=wrap;html=1;" vertex="1" parent="WIyWlLk6GJQsqaUBKTNV-1">
          <mxGeometry x="-690" y="-1110" width="200" height="150" as="geometry" />
        </mxCell>
        <mxCell id="-mYZi2nTDg7IoqrMFamv-64" value="nativr lang" style="whiteSpace=wrap;html=1;" vertex="1" parent="-mYZi2nTDg7IoqrMFamv-60">
          <mxGeometry y="23" width="200" height="20" as="geometry" />
        </mxCell>
        <mxCell id="-mYZi2nTDg7IoqrMFamv-85" value="study lang" style="whiteSpace=wrap;html=1;" vertex="1" parent="-mYZi2nTDg7IoqrMFamv-60">
          <mxGeometry y="43" width="200" height="20" as="geometry" />
        </mxCell>
        <mxCell id="-mYZi2nTDg7IoqrMFamv-87" value="level" style="whiteSpace=wrap;html=1;" vertex="1" parent="-mYZi2nTDg7IoqrMFamv-60">
          <mxGeometry y="63" width="200" height="20" as="geometry" />
        </mxCell>
        <mxCell id="-mYZi2nTDg7IoqrMFamv-65" style="edgeStyle=orthogonalEdgeStyle;rounded=0;orthogonalLoop=1;jettySize=auto;html=1;" edge="1" parent="WIyWlLk6GJQsqaUBKTNV-1" source="-mYZi2nTDg7IoqrMFamv-64" target="-mYZi2nTDg7IoqrMFamv-70">
          <mxGeometry relative="1" as="geometry">
            <mxPoint x="-230" y="-1030" as="targetPoint" />
            <Array as="points">
              <mxPoint x="-290" y="-1077" />
              <mxPoint x="-290" y="-1050" />
            </Array>
          </mxGeometry>
        </mxCell>
        <mxCell id="-mYZi2nTDg7IoqrMFamv-66" value="" style="shape=table;startSize=0;container=1;collapsible=0;childLayout=tableLayout;" vertex="1" parent="WIyWlLk6GJQsqaUBKTNV-1">
          <mxGeometry x="-220" y="-1110" width="120" height="240" as="geometry" />
        </mxCell>
        <mxCell id="-mYZi2nTDg7IoqrMFamv-67" value="" style="shape=tableRow;horizontal=0;startSize=0;swimlaneHead=0;swimlaneBody=0;strokeColor=inherit;top=0;left=0;bottom=0;right=0;collapsible=0;dropTarget=0;fillColor=none;points=[[0,0.5],[1,0.5]];portConstraint=eastwest;" vertex="1" parent="-mYZi2nTDg7IoqrMFamv-66">
          <mxGeometry width="120" height="40" as="geometry" />
        </mxCell>
        <mxCell id="-mYZi2nTDg7IoqrMFamv-68" value="initial storage" style="shape=partialRectangle;html=1;whiteSpace=wrap;connectable=0;strokeColor=inherit;overflow=hidden;fillColor=none;top=0;left=0;bottom=0;right=0;pointerEvents=1;rowspan=1;colspan=2;" vertex="1" parent="-mYZi2nTDg7IoqrMFamv-67">
          <mxGeometry width="120" height="40" as="geometry">
            <mxRectangle width="60" height="40" as="alternateBounds" />
          </mxGeometry>
        </mxCell>
        <mxCell id="-mYZi2nTDg7IoqrMFamv-69" value="" style="shape=partialRectangle;html=1;whiteSpace=wrap;connectable=0;strokeColor=inherit;overflow=hidden;fillColor=none;top=0;left=0;bottom=0;right=0;pointerEvents=1;" vertex="1" visible="0" parent="-mYZi2nTDg7IoqrMFamv-67">
          <mxGeometry x="60" width="60" height="40" as="geometry">
            <mxRectangle width="60" height="40" as="alternateBounds" />
          </mxGeometry>
        </mxCell>
        <mxCell id="-mYZi2nTDg7IoqrMFamv-70" value="" style="shape=tableRow;horizontal=0;startSize=0;swimlaneHead=0;swimlaneBody=0;strokeColor=inherit;top=0;left=0;bottom=0;right=0;collapsible=0;dropTarget=0;fillColor=none;points=[[0,0.5],[1,0.5]];portConstraint=eastwest;" vertex="1" parent="-mYZi2nTDg7IoqrMFamv-66">
          <mxGeometry y="40" width="120" height="40" as="geometry" />
        </mxCell>
        <mxCell id="-mYZi2nTDg7IoqrMFamv-71" value="&lt;font style=&quot;color: light-dark(rgb(186, 0, 0), rgb(255, 0, 0));&quot;&gt;nativ_lang&lt;/font&gt;" style="shape=partialRectangle;html=1;whiteSpace=wrap;connectable=0;strokeColor=inherit;overflow=hidden;fillColor=none;top=0;left=0;bottom=0;right=0;pointerEvents=1;" vertex="1" parent="-mYZi2nTDg7IoqrMFamv-70">
          <mxGeometry width="60" height="40" as="geometry">
            <mxRectangle width="60" height="40" as="alternateBounds" />
          </mxGeometry>
        </mxCell>
        <mxCell id="-mYZi2nTDg7IoqrMFamv-72" value="en" style="shape=partialRectangle;html=1;whiteSpace=wrap;connectable=0;strokeColor=inherit;overflow=hidden;fillColor=none;top=0;left=0;bottom=0;right=0;pointerEvents=1;" vertex="1" parent="-mYZi2nTDg7IoqrMFamv-70">
          <mxGeometry x="60" width="60" height="40" as="geometry">
            <mxRectangle width="60" height="40" as="alternateBounds" />
          </mxGeometry>
        </mxCell>
        <mxCell id="-mYZi2nTDg7IoqrMFamv-73" value="" style="shape=tableRow;horizontal=0;startSize=0;swimlaneHead=0;swimlaneBody=0;strokeColor=inherit;top=0;left=0;bottom=0;right=0;collapsible=0;dropTarget=0;fillColor=none;points=[[0,0.5],[1,0.5]];portConstraint=eastwest;" vertex="1" parent="-mYZi2nTDg7IoqrMFamv-66">
          <mxGeometry y="80" width="120" height="40" as="geometry" />
        </mxCell>
        <mxCell id="-mYZi2nTDg7IoqrMFamv-74" value="&lt;font style=&quot;color: light-dark(transparent, rgb(255, 0, 0));&quot;&gt;study_lang&lt;/font&gt;" style="shape=partialRectangle;html=1;whiteSpace=wrap;connectable=0;strokeColor=inherit;overflow=hidden;fillColor=none;top=0;left=0;bottom=0;right=0;pointerEvents=1;" vertex="1" parent="-mYZi2nTDg7IoqrMFamv-73">
          <mxGeometry width="60" height="40" as="geometry">
            <mxRectangle width="60" height="40" as="alternateBounds" />
          </mxGeometry>
        </mxCell>
        <mxCell id="-mYZi2nTDg7IoqrMFamv-75" value="en" style="shape=partialRectangle;html=1;whiteSpace=wrap;connectable=0;strokeColor=inherit;overflow=hidden;fillColor=none;top=0;left=0;bottom=0;right=0;pointerEvents=1;" vertex="1" parent="-mYZi2nTDg7IoqrMFamv-73">
          <mxGeometry x="60" width="60" height="40" as="geometry">
            <mxRectangle width="60" height="40" as="alternateBounds" />
          </mxGeometry>
        </mxCell>
        <mxCell id="-mYZi2nTDg7IoqrMFamv-76" value="" style="shape=tableRow;horizontal=0;startSize=0;swimlaneHead=0;swimlaneBody=0;strokeColor=inherit;top=0;left=0;bottom=0;right=0;collapsible=0;dropTarget=0;fillColor=none;points=[[0,0.5],[1,0.5]];portConstraint=eastwest;" vertex="1" parent="-mYZi2nTDg7IoqrMFamv-66">
          <mxGeometry y="120" width="120" height="40" as="geometry" />
        </mxCell>
        <mxCell id="-mYZi2nTDg7IoqrMFamv-77" value="&lt;font style=&quot;color: light-dark(rgb(0, 0, 0), rgb(255, 51, 51));&quot;&gt;level&lt;/font&gt;" style="shape=partialRectangle;html=1;whiteSpace=wrap;connectable=0;strokeColor=inherit;overflow=hidden;fillColor=none;top=0;left=0;bottom=0;right=0;pointerEvents=1;" vertex="1" parent="-mYZi2nTDg7IoqrMFamv-76">
          <mxGeometry width="60" height="40" as="geometry">
            <mxRectangle width="60" height="40" as="alternateBounds" />
          </mxGeometry>
        </mxCell>
        <mxCell id="-mYZi2nTDg7IoqrMFamv-78" value="A,B,C" style="shape=partialRectangle;html=1;whiteSpace=wrap;connectable=0;strokeColor=inherit;overflow=hidden;fillColor=none;top=0;left=0;bottom=0;right=0;pointerEvents=1;" vertex="1" parent="-mYZi2nTDg7IoqrMFamv-76">
          <mxGeometry x="60" width="60" height="40" as="geometry">
            <mxRectangle width="60" height="40" as="alternateBounds" />
          </mxGeometry>
        </mxCell>
        <mxCell id="-mYZi2nTDg7IoqrMFamv-79" value="" style="shape=tableRow;horizontal=0;startSize=0;swimlaneHead=0;swimlaneBody=0;strokeColor=inherit;top=0;left=0;bottom=0;right=0;collapsible=0;dropTarget=0;fillColor=none;points=[[0,0.5],[1,0.5]];portConstraint=eastwest;" vertex="1" parent="-mYZi2nTDg7IoqrMFamv-66">
          <mxGeometry y="160" width="120" height="40" as="geometry" />
        </mxCell>
        <mxCell id="-mYZi2nTDg7IoqrMFamv-80" value="" style="shape=partialRectangle;html=1;whiteSpace=wrap;connectable=0;strokeColor=inherit;overflow=hidden;fillColor=none;top=0;left=0;bottom=0;right=0;pointerEvents=1;" vertex="1" parent="-mYZi2nTDg7IoqrMFamv-79">
          <mxGeometry width="60" height="40" as="geometry">
            <mxRectangle width="60" height="40" as="alternateBounds" />
          </mxGeometry>
        </mxCell>
        <mxCell id="-mYZi2nTDg7IoqrMFamv-81" value="" style="shape=partialRectangle;html=1;whiteSpace=wrap;connectable=0;strokeColor=inherit;overflow=hidden;fillColor=none;top=0;left=0;bottom=0;right=0;pointerEvents=1;" vertex="1" parent="-mYZi2nTDg7IoqrMFamv-79">
          <mxGeometry x="60" width="60" height="40" as="geometry">
            <mxRectangle width="60" height="40" as="alternateBounds" />
          </mxGeometry>
        </mxCell>
        <mxCell id="-mYZi2nTDg7IoqrMFamv-82" value="" style="shape=tableRow;horizontal=0;startSize=0;swimlaneHead=0;swimlaneBody=0;strokeColor=inherit;top=0;left=0;bottom=0;right=0;collapsible=0;dropTarget=0;fillColor=none;points=[[0,0.5],[1,0.5]];portConstraint=eastwest;" vertex="1" parent="-mYZi2nTDg7IoqrMFamv-66">
          <mxGeometry y="200" width="120" height="40" as="geometry" />
        </mxCell>
        <mxCell id="-mYZi2nTDg7IoqrMFamv-83" value="" style="shape=partialRectangle;html=1;whiteSpace=wrap;connectable=0;strokeColor=inherit;overflow=hidden;fillColor=none;top=0;left=0;bottom=0;right=0;pointerEvents=1;" vertex="1" parent="-mYZi2nTDg7IoqrMFamv-82">
          <mxGeometry width="60" height="40" as="geometry">
            <mxRectangle width="60" height="40" as="alternateBounds" />
          </mxGeometry>
        </mxCell>
        <mxCell id="-mYZi2nTDg7IoqrMFamv-84" value="" style="shape=partialRectangle;html=1;whiteSpace=wrap;connectable=0;strokeColor=inherit;overflow=hidden;fillColor=none;top=0;left=0;bottom=0;right=0;pointerEvents=1;" vertex="1" parent="-mYZi2nTDg7IoqrMFamv-82">
          <mxGeometry x="60" width="60" height="40" as="geometry">
            <mxRectangle width="60" height="40" as="alternateBounds" />
          </mxGeometry>
        </mxCell>
        <mxCell id="-mYZi2nTDg7IoqrMFamv-86" style="edgeStyle=orthogonalEdgeStyle;rounded=0;orthogonalLoop=1;jettySize=auto;html=1;entryX=0;entryY=0.5;entryDx=0;entryDy=0;" edge="1" parent="WIyWlLk6GJQsqaUBKTNV-1" source="-mYZi2nTDg7IoqrMFamv-85" target="-mYZi2nTDg7IoqrMFamv-73">
          <mxGeometry relative="1" as="geometry">
            <Array as="points">
              <mxPoint x="-300" y="-1057" />
              <mxPoint x="-300" y="-1010" />
            </Array>
          </mxGeometry>
        </mxCell>
        <mxCell id="-mYZi2nTDg7IoqrMFamv-88" style="edgeStyle=orthogonalEdgeStyle;rounded=0;orthogonalLoop=1;jettySize=auto;html=1;" edge="1" parent="WIyWlLk6GJQsqaUBKTNV-1" source="-mYZi2nTDg7IoqrMFamv-87" target="-mYZi2nTDg7IoqrMFamv-76">
          <mxGeometry relative="1" as="geometry">
            <Array as="points">
              <mxPoint x="-320" y="-1037" />
              <mxPoint x="-320" y="-970" />
            </Array>
          </mxGeometry>
        </mxCell>
        <mxCell id="-mYZi2nTDg7IoqrMFamv-89" value="Vertical Container" style="swimlane;whiteSpace=wrap;html=1;" vertex="1" parent="WIyWlLk6GJQsqaUBKTNV-1">
          <mxGeometry x="-690" y="-830" width="200" height="200" as="geometry" />
        </mxCell>
      </root>
    </mxGraphModel>
  </diagram>
</mxfile>
